<svg id="a50fd755-b70f-4e5f-b336-9e50a578b62c" data-name="Layer 1" xmlns="http://www.w3.org/2000/svg" xmlns:xlink="http://www.w3.org/1999/xlink" viewBox="0 0 1128.33 786.75"><defs><linearGradient id="be48829d-c862-4d39-810b-ff1fea1d92ea" x1="874.32" y1="843.37" x2="874.32" y2="398.88" gradientUnits="userSpaceOnUse"><stop offset="0" stop-color="gray" stop-opacity="0.25"></stop><stop offset="0.54" stop-color="gray" stop-opacity="0.12"></stop><stop offset="1" stop-color="gray" stop-opacity="0.1"></stop></linearGradient></defs><path d="M691.54,181.1c-72.31-2.51-141.18-25.86-206.95-51.4S353.68,75.86,283.09,62.33c-45.39-8.71-97.31-9.94-133.89,14.4C114,100.15,102.63,140.58,96.51,178.1c-4.6,28.23-7.3,57.93,5.3,84.36,8.75,18.34,24.29,33.76,35,51.33,37.39,61.15,11,136.54-29.56,196.25-19,28-41.06,54.72-55.72,84.53S30.11,658.54,43,689c12.72,30.14,43,52.78,75.87,68.71C185.51,790,264.1,799.26,340.73,804.5c169.64,11.6,340.19,6.58,510.28,1.55,62.94-1.87,126.17-3.75,188.09-13.49,34.39-5.4,69.89-14,94.86-34.69,31.69-26.29,39.55-70.81,18.31-103.78-35.62-55.3-134.11-69-159-128.38-13.71-32.66.37-69.05,20.29-99.34,42.72-65,114.33-122,118.1-196.29,2.6-51-31.83-102.12-85.06-126.26-55.8-25.3-133.16-22.12-174.33,19.77C829.88,166.72,755.39,183.31,691.54,181.1Z" transform="translate(-35.84 -56.63)" fill="#9c27b0" opacity="0.1"></path><path d="M938.48,738.54a30.82,30.82,0,0,0-12.59-1.34c-5.17.56-4.44,8.43.75,8.06a37.18,37.18,0,0,0,7.66-1.41Z" transform="translate(-35.84 -56.63)" fill="#9c27b0"></path><path d="M940.05,738.61a30.77,30.77,0,0,1,3.08,12.29c.17,5.2-7.73,5.57-8.09.38a37.63,37.63,0,0,1,.34-7.78Z" transform="translate(-35.84 -56.63)" fill="#9c27b0"></path><path d="M951.81,721.77s-2.53-7.94-18-4.86c-7,1.39-6.81,11.43.2,12.49l.3,0C944.52,730.82,948.07,726.77,951.81,721.77Z" transform="translate(-35.84 -56.63)" fill="#9c27b0"></path><path d="M953.42,721.3s8.31.65,8.83,16.4c.24,7.09-9.57,9.24-12.2,2.66,0-.1-.07-.19-.11-.29C946.27,730.46,949.4,726.08,953.42,721.3Z" transform="translate(-35.84 -56.63)" fill="#9c27b0"></path><path d="M964.52,701a16.53,16.53,0,0,0-11.16-12.46c-10.47-3.3-16,12.36-5.77,16.34a32.68,32.68,0,0,0,13.24,1.92Z" transform="translate(-35.84 -56.63)" fill="#9c27b0"></path><path d="M977.29,674.85s-4.23-10-15.2-12c-11.63-2.13-15.15,15.34-3.66,18.13a38.35,38.35,0,0,0,15.66.13Z" transform="translate(-35.84 -56.63)" fill="#9c27b0"></path><path d="M985,649.1a24.82,24.82,0,0,0-16-11c-10-1.88-13.37,13.09-3.55,15.65a37.34,37.34,0,0,0,18.74-.26Z" transform="translate(-35.84 -56.63)" fill="#9c27b0"></path><path d="M992.27,624a25.81,25.81,0,0,0-14-11.13c-10-3.07-14.94,12.09-5,15.39a28.47,28.47,0,0,0,18.14-.07Z" transform="translate(-35.84 -56.63)" fill="#9c27b0"></path><path d="M995.33,601.13s-4-9.38-12.15-14.34c-9.08-5.53-17.73,8-9,14.09,5.38,3.77,12.27,6.37,20.32,4.63Z" transform="translate(-35.84 -56.63)" fill="#9c27b0"></path><path d="M996.84,574s-4.41-9.47-12.87-14c-9.46-5-17.69,8.82-8.78,14.78,5.83,3.89,13.11,6.41,20.84,3.37Z" transform="translate(-35.84 -56.63)" fill="#9c27b0"></path><path d="M995.9,549.26a61.35,61.35,0,0,0-12-13.65c-6.62-5.41-15,4.33-8.73,10.11,5.79,5.31,13,9.77,20.45,9.41Z" transform="translate(-35.84 -56.63)" fill="#9c27b0"></path><path d="M993.39,525.52A89.9,89.9,0,0,0,979.83,508c-5.18-5-12.84,2.62-8,7.89,5.59,6,13.13,12.22,22.19,14.94Z" transform="translate(-35.84 -56.63)" fill="#9c27b0"></path><path d="M988.54,497.6a80.15,80.15,0,0,0-10.83-13.41c-5.22-5.11-13.09,2.58-8.08,7.89,5.32,5.65,12.2,10.94,20.27,12.74Z" transform="translate(-35.84 -56.63)" fill="#9c27b0"></path><path d="M984.3,471.55a127.83,127.83,0,0,0-10.41-12.37c-4.18-4.31-10.86,1.75-6.92,6.29,4.63,5.34,10.57,10.07,17.4,10.83Z" transform="translate(-35.84 -56.63)" fill="#9c27b0"></path><path d="M979.9,447.39a130.3,130.3,0,0,0-10-16.45c-3.13-4.28-9.65.3-6.7,4.7,3.86,5.77,9.22,11.48,16.26,14.23Z" transform="translate(-35.84 -56.63)" fill="#9c27b0"></path><path d="M976.27,415.28s-2.47-4.19-6-9.06c-3.26-4.49-10.14.15-7.12,4.8,3.4,5.21,7.66,9.65,12.62,10.53Z" transform="translate(-35.84 -56.63)" fill="#9c27b0"></path><path d="M974.54,394l-3.13-15.65c-.83-4.14-7-3.15-6.5,1,1.12,8.36,4,16.77,10.27,22.29Z" transform="translate(-35.84 -56.63)" fill="#9c27b0"></path><path d="M976.4,349.52h0a3.07,3.07,0,0,0-5.86,1.68A79.23,79.23,0,0,0,973.7,364Z" transform="translate(-35.84 -56.63)" fill="#9c27b0"></path><path d="M965.22,700.69a16.53,16.53,0,0,1,16.36,3.52c8,7.47-2.82,20-11.35,13.11A32.86,32.86,0,0,1,962,706.77Z" transform="translate(-35.84 -56.63)" fill="#9c27b0"></path><path d="M978,673.9s10.52-2.54,18.66,5.08c8.63,8.08-3.3,21.31-12.39,13.74a38.29,38.29,0,0,1-9.43-12.51Z" transform="translate(-35.84 -56.63)" fill="#9c27b0"></path><path d="M985.69,650.86a24.83,24.83,0,0,1,19-4.22c10,2,7.51,17.13-2.56,15.84a37.41,37.41,0,0,1-17.28-7.25Z" transform="translate(-35.84 -56.63)" fill="#9c27b0"></path><path d="M992.77,624.14a25.78,25.78,0,0,1,17.12-5.11c10.46.91,9.34,16.8-1.13,16.14a28.41,28.41,0,0,1-16.8-6.85Z" transform="translate(-35.84 -56.63)" fill="#9c27b0"></path><path d="M995.2,601.78s5.55-8.56,14.41-12.06c9.83-3.89,16.14,10.84,6.59,15.37-6,2.83-13.23,4.26-20.91,1.15Z" transform="translate(-35.84 -56.63)" fill="#9c27b0"></path><path d="M995.55,573.59s5.61-8.8,14.58-12.16c10-3.75,16.39,11.05,6.78,15.8-6.29,3.1-13.84,4.64-21.1.62Z" transform="translate(-35.84 -56.63)" fill="#9c27b0"></path><path d="M993.67,549a61.32,61.32,0,0,1,8.8-15.9c5.3-6.71,15.61,1,10.69,8-4.52,6.43-10.56,12.32-18,13.57Z" transform="translate(-35.84 -56.63)" fill="#9c27b0"></path><path d="M992.9,525.48a89.53,89.53,0,0,1,8.12-20.66c3.59-6.22,13.06-1.07,9.84,5.35-3.68,7.35-9.2,15.4-17.14,20.55Z" transform="translate(-35.84 -56.63)" fill="#9c27b0"></path><path d="M987.1,496.3a80.22,80.22,0,0,1,8.26-15.77c4.12-6,13.25-.12,9.48,6.08-4.1,6.76-9.88,13.56-17.63,17Z" transform="translate(-35.84 -56.63)" fill="#9c27b0"></path><path d="M982.48,471.41a128.51,128.51,0,0,1,4.33-15.57c2-5.67,10.61-2.93,8.91,2.84-2,6.78-5.43,13.55-11.32,17.08Z" transform="translate(-35.84 -56.63)" fill="#9c27b0"></path><path d="M979.27,446.92a129.85,129.85,0,0,1,6-18.31c2.08-4.88,9.48-1.91,7.6,3.05-2.44,6.5-6.36,13.28-12.58,17.56Z" transform="translate(-35.84 -56.63)" fill="#9c27b0"></path><path d="M974.46,417.48s.94-4.77,2.65-10.54c1.58-5.32,9.62-3.23,8.31,2.16-1.46,6-4,11.65-8.4,14.13Z" transform="translate(-35.84 -56.63)" fill="#9c27b0"></path><path d="M975.58,392.94l5.44-15c1.44-4,7.44-2.06,6.27,2-2.35,8.1-6.43,16-13.48,20.5Z" transform="translate(-35.84 -56.63)" fill="#9c27b0"></path><path d="M982.36,351.09s.85-.68,2.15-1.75c2.65-2.2,6.11,1.64,3.61,4a51,51,0,0,1-14.79,9.38Z" transform="translate(-35.84 -56.63)" fill="#9c27b0"></path><path d="M982,342.4a197,197,0,0,1,10.85-19.32,2,2,0,0,0-3.24-2.29c-3.2,4.38-6.34,10.79-8.72,20.21Z" transform="translate(-35.84 -56.63)" fill="#9c27b0"></path><path d="M975.8,421.8l1.16-.12c-5-46.61-2.89-75.35,5.85-80.92l-.63-1C972.92,345.69,970.72,374.05,975.8,421.8Z" transform="translate(-35.84 -56.63)" fill="#444053"></path><path d="M993,532l1.73-.26c-.65-4.31-1.4-8.69-2.24-13-7.28-37.83-12.94-72.8-15.77-99.36l-1.27-1c2.84,26.61,8,62.79,15.33,100.67C991.6,523.33,992.35,527.7,993,532Z" transform="translate(-35.84 -56.63)" fill="#444053"></path><path d="M912,767.58c.26-.21,26.9-20.59,50.29-59.68a252,252,0,0,0,29.6-73.79c7.39-32.51,7.6-70.37,2.27-105.83l-1.56,1.25c12,79.58-10.89,141.37-32.25,177.09-23.16,38.73-49.49,58.9-49.76,59.1Z" transform="translate(-35.84 -56.63)" fill="#444053"></path><ellipse cx="194.02" cy="697.97" rx="66.55" ry="12.8" fill="#9c27b0"></ellipse><ellipse cx="192.9" cy="692.53" rx="7.75" ry="10.14" fill="#3f3d56"></ellipse><ellipse cx="192.9" cy="680.13" rx="7.75" ry="10.14" fill="#3f3d56"></ellipse><ellipse cx="192.9" cy="667.74" rx="7.75" ry="10.14" fill="#3f3d56"></ellipse><ellipse cx="192.9" cy="655.34" rx="7.75" ry="10.14" fill="#3f3d56"></ellipse><ellipse cx="192.9" cy="642.94" rx="7.75" ry="10.14" fill="#3f3d56"></ellipse><ellipse cx="192.9" cy="630.55" rx="7.75" ry="10.14" fill="#3f3d56"></ellipse><ellipse cx="192.9" cy="618.15" rx="7.75" ry="10.14" fill="#3f3d56"></ellipse><path d="M257.74,589.94a36.51,36.51,0,0,0,2.89-4.25l-20.36-3.34,22,.16a37.14,37.14,0,0,0,.71-29.4l-29.54,15.32,27.24-20a37.12,37.12,0,1,0-61.3,41.53,37.49,37.49,0,0,0-4.23,6.77l26.43,13.73L193.42,601a37.13,37.13,0,0,0,6,34.85,37.12,37.12,0,1,0,58.34,0,37.09,37.09,0,0,0,0-45.89Z" transform="translate(-35.84 -56.63)" fill="#9c27b0"></path><path d="M191.46,612.89a37,37,0,0,0,7.94,22.94,37.12,37.12,0,1,0,58.34,0C262.72,629.52,191.46,608.72,191.46,612.89Z" transform="translate(-35.84 -56.63)" opacity="0.1"></path><path d="M267.81,317.87V759.58A15.42,15.42,0,0,0,283.23,775H917.1a15.42,15.42,0,0,0,15.42-15.42V317.87Z" transform="translate(-35.84 -56.63)" fill="#fff"></path><rect x="284.57" y="300.78" width="158.9" height="93.27" rx="8.65" opacity="0.1"></rect><rect x="484.88" y="300.78" width="158.9" height="93.27" rx="8.65" opacity="0.1"></rect><rect x="286.8" y="302.09" width="154.43" height="90.64" rx="8.65" fill="#9c27b0"></rect><rect x="723.26" y="358.72" width="154.43" height="90.64" rx="8.65" transform="translate(1565.11 751.45) rotate(-180)" fill="#444053" opacity="0.1"></rect><rect x="522.95" y="358.72" width="154.43" height="90.64" rx="8.65" transform="translate(1164.49 751.45) rotate(-180)" fill="#9c27b0"></rect><rect x="286.8" y="433.02" width="154.43" height="90.64" rx="8.65" fill="#444053" opacity="0.1"></rect><rect x="723.26" y="489.65" width="154.43" height="90.64" rx="8.65" transform="translate(1565.11 1013.31) rotate(-180)" fill="#444053" opacity="0.1"></rect><rect x="522.95" y="489.65" width="154.43" height="90.64" rx="8.65" transform="translate(1164.49 1013.31) rotate(-180)" fill="#444053" opacity="0.1"></rect><rect x="286.8" y="563.95" width="154.43" height="90.64" rx="8.65" fill="#444053" opacity="0.1"></rect><rect x="723.26" y="620.57" width="154.43" height="90.64" rx="8.65" transform="translate(1565.11 1275.17) rotate(-180)" fill="#444053" opacity="0.1"></rect><rect x="522.95" y="620.57" width="154.43" height="90.64" rx="8.65" transform="translate(1164.49 1275.17) rotate(-180)" fill="#444053" opacity="0.1"></rect><path d="M267.81,239.86v80.25H932.52V239.86a15.42,15.42,0,0,0-15.42-15.43H283.23A15.42,15.42,0,0,0,267.81,239.86Zm164.5,23.74a12.31,12.31,0,1,1,12.31-12.31A12.31,12.31,0,0,1,432.31,263.6Zm335.71,0a12.31,12.31,0,1,1,12.31-12.31A12.31,12.31,0,0,1,768,263.6Z" transform="translate(-35.84 -56.63)" fill="#9c27b0"></path><path d="M432.31,236.74a14.55,14.55,0,1,0,14.54,14.55A14.54,14.54,0,0,0,432.31,236.74Zm0,26.86a12.31,12.31,0,1,1,12.31-12.31A12.31,12.31,0,0,1,432.31,263.6Z" transform="translate(-35.84 -56.63)" opacity="0.1"></path><path d="M768,236.74a14.55,14.55,0,1,0,14.55,14.55A14.55,14.55,0,0,0,768,236.74Zm0,26.86a12.31,12.31,0,1,1,12.31-12.31A12.31,12.31,0,0,1,768,263.6Z" transform="translate(-35.84 -56.63)" opacity="0.1"></path><circle cx="1033.1" cy="419.94" r="15.27" fill="#9c27b0" opacity="0.1"></circle><circle cx="1087.73" cy="351.84" r="25.6" fill="#9c27b0" opacity="0.1"></circle><circle cx="1053.84" cy="476.06" r="25.6" fill="#9c27b0" opacity="0.1"></circle><circle cx="36.25" cy="345.56" r="36.25" fill="#9c27b0" opacity="0.1"></circle><path d="M845.84,482.9c-1.47-.26-3.12-.62-3.92-1.88a5.27,5.27,0,0,1-.43-3.45,96.76,96.76,0,0,1,5-22.1c2.23,4.13,6.62,6.54,10.78,8.71a80,80,0,0,0,11.58,5.28c-1-.32-3.45,15.06-4.83,16-1.74,1.22-5.94-.43-7.87-.76Z" transform="translate(-35.84 -56.63)" fill="#9c27b0"></path><circle cx="820.65" cy="400.71" r="21.02" fill="#a1616a"></circle><path d="M453.88,354.58l-7.25-7.29a3.85,3.85,0,0,0-5.47,0L395.63,392.4,376.37,373a3.84,3.84,0,0,0-5.43,0l-7.33,7.25a3.89,3.89,0,0,0,0,5.47l29.25,29.47a3.88,3.88,0,0,0,5.46,0l55.56-55.14A3.85,3.85,0,0,0,453.88,354.58Z" transform="translate(-35.84 -56.63)" fill="#3acc6c"></path><path d="M654.88,354.58l-7.25-7.29a3.85,3.85,0,0,0-5.47,0L596.63,392.4,577.37,373a3.84,3.84,0,0,0-5.43,0l-7.33,7.25a3.89,3.89,0,0,0,0,5.47l29.25,29.47a3.88,3.88,0,0,0,5.46,0l55.56-55.14A3.85,3.85,0,0,0,654.88,354.58Z" transform="translate(-35.84 -56.63)" fill="#3acc6c"></path></svg>