<!-- <svg xmlns="http://www.w3.org/2000/svg" width="24" height="24" viewBox="0 0 24 24"><path d="M22 2v20h-20v-20h20zm2-2h-24v24h24v-24zm-4 7h-8v1h8v-1zm0 5h-8v1h8v-1zm0 5h-8v1h8v-1zm-10.516-11.304l-.71-.696-2.553 2.607-1.539-1.452-.698.71 2.25 2.135 3.25-3.304zm0 5l-.71-.696-2.552 2.607-1.539-1.452-.698.709 2.249 2.136 3.25-3.304zm0 5l-.71-.696-2.552 2.607-1.539-1.452-.698.709 2.249 2.136 3.25-3.304z"/></svg> -->
<svg xmlns="http://www.w3.org/2000/svg" viewBox="0 0 512 512"><path d="M208 132h288c8.8 0 16-7.2 16-16V76c0-8.8-7.2-16-16-16H208c-8.8 0-16 7.2-16 16v40c0 8.8 7.2 16 16 16zm0 160h288c8.8 0 16-7.2 16-16v-40c0-8.8-7.2-16-16-16H208c-8.8 0-16 7.2-16 16v40c0 8.8 7.2 16 16 16zm0 160h288c8.8 0 16-7.2 16-16v-40c0-8.8-7.2-16-16-16H208c-8.8 0-16 7.2-16 16v40c0 8.8 7.2 16 16 16zM64 368c-26.5 0-48.6 21.5-48.6 48s22.1 48 48.6 48 48-21.5 48-48-21.5-48-48-48zm92.5-299l-72.2 72.2-15.6 15.6c-4.7 4.7-12.9 4.7-17.6 0L3.5 109.4c-4.7-4.7-4.7-12.3 0-17l15.7-15.7c4.7-4.7 12.3-4.7 17 0l22.7 22.1 63.7-63.3c4.7-4.7 12.3-4.7 17 0l17 16.5c4.6 4.7 4.6 12.3-.1 17zm0 159.6l-72.2 72.2-15.7 15.7c-4.7 4.7-12.9 4.7-17.6 0L3.5 269c-4.7-4.7-4.7-12.3 0-17l15.7-15.7c4.7-4.7 12.3-4.7 17 0l22.7 22.1 63.7-63.7c4.7-4.7 12.3-4.7 17 0l17 17c4.6 4.6 4.6 12.2-.1 16.9z"/></svg>